<svg width="96" height="96" xmlns="http://www.w3.org/2000/svg" xmlns:xlink="http://www.w3.org/1999/xlink" xml:space="preserve" overflow="hidden"><g transform="translate(-544 -576)"><path d="M552 596 552 652 632 652 632 596 552 596ZM593.4 630.9C592.6 631.7 591.4 631.7 590.6 630.9L561 602 623.1 602 593.4 630.9ZM577.5 623.7 558 643.3 558 604.6 577.5 623.7ZM580.4 626.5 587.9 633.8C589.1 634.9 590.6 635.5 592.1 635.5 593.6 635.5 595.1 634.9 596.3 633.8L603.8 626.5 623.2 646 560.9 646 580.4 626.5ZM606.5 623.7 626 604.7 626 643.2 606.5 623.7Z" stroke="#000000" stroke-width="4"/></g></svg>